Coordinates
version=1
nRows=14
nColumns=24
inDegrees=yes

Units are S.I. units (second, meters, Newtons, ...)
Angles are in degrees.

endheader
time	pelvis_tilt	pelvis_list	pelvis_rotation	pelvis_tx	pelvis_ty	pelvis_tz	hip_flexion_r	hip_adduction_r	hip_rotation_r	knee_angle_r	ankle_angle_r	subtalar_angle_r	mtp_angle_r	hip_flexion_l	hip_adduction_l	hip_rotation_l	knee_angle_l	ankle_angle_l	subtalar_angle_l	mtp_angle_l	lumbar_extension	lumbar_bending	lumbar_rotation
      4.42500000	    -15.09274602	     11.43499340	     -8.46279906	      0.65328580	     -0.02577431	      0.01043091	     19.29735382	    -15.24303475	     -0.16522606	    -56.54548245	    -28.44868849	     13.10473194	     43.11064919	     30.82377217	      8.85974350	    -16.12108688	    -16.31895186	     -8.05677726	      4.03381653	      9.76616620	     15.70709231	    -13.70954630	     10.03771538
      4.43000000	    -14.98430748	     11.38937723	     -8.32929955	      0.65967031	     -0.02467767	      0.00972811	     19.94824221	    -15.21642160	     -0.05176535	    -57.64437364	    -27.84600592	     12.96163238	     43.23105688	     30.08605573	      9.07487655	    -15.99329518	    -15.90368590	     -7.80729373	      4.27507264	      9.91702400	     15.57695992	    -13.67929356	      9.68109630
      4.43500000	    -14.86778807	     11.32038321	     -8.18363219	      0.66602933	     -0.02353738	      0.00903514	     20.57558318	    -15.16925956	      0.03167978	    -58.67003253	    -27.30609394	     12.92923682	     43.39109928	     29.33246839	      9.26940521	    -15.83978948	    -15.48362296	     -7.58132852	      4.53833672	     10.04875994	     15.43061449	    -13.63332637	      9.28539418
      4.44000000	    -14.75100479	     11.21027699	     -8.01931240	      0.67241111	     -0.02237810	      0.00831041	     21.16912783	    -15.08615258	      0.07745377	    -59.61325903	    -26.79231938	     13.02438299	     43.62042271	     28.57031628	      9.43027720	    -15.64174477	    -15.07074642	     -7.35362380	      4.79216097	     10.15945016	     15.27932321	    -13.54644643	      8.86584300
      4.44500000	    -14.60990170	     11.05839918	     -7.82132053	      0.67876959	     -0.02115093	      0.00754592	     21.69767880	    -14.97374934	      0.08590353	    -60.45892003	    -26.34618789	     13.28468286	     43.98745405	     27.77333760	      9.56581968	    -15.38086677	    -14.65872433	     -7.14632775	      5.06250840	     10.23805367	     15.08117684	    -13.43241800	      8.36932783
      4.45000000	    -14.48511257	     10.87487281	     -7.60769510	      0.68514369	     -0.01995099	      0.00673963	     22.21532801	    -14.83088254	      0.06340513	    -61.22836308	    -25.90857473	     13.61117217	     44.47476231	     26.98847644	      9.67367544	    -15.06862477	    -14.25319193	     -6.92913037	      5.27448200	     10.27469007	     14.89951293	    -13.27832332	      7.87586281
      4.45500000	    -14.29376732	     10.64367053	     -7.39504309	      0.69152012	     -0.01864851	      0.00589619	     22.61827113	    -14.65291366	     -0.00717385	    -61.86819611	    -25.56010504	     13.83135609	     45.52904309	     26.11394225	      9.75693050	    -14.63575102	    -13.83654752	     -6.70381376	      5.35343647	     10.15227277	     14.63852332	    -13.07790453	      7.38108905
      4.46000000	    -14.21711421	     10.42190464	     -7.14900068	      0.69785812	     -0.01752238	      0.00504888	     23.14742672	    -14.46940049	     -0.07212749	    -62.48703956	    -25.17385915	     14.23886773	     46.41389954	     25.38020767	      9.81970418	    -14.25163046	    -13.44519064	     -6.49382405	      5.50274986	     10.10511156	     14.50383136	    -12.87906111	      6.86690649
      4.46500000	    -14.16870868	     10.21989214	     -6.89299197	      0.70419077	     -0.01647744	      0.00424123	     23.70961589	    -14.30042208	     -0.13126323	    -63.09117139	    -24.71878008	     14.80444910	     46.88559836	     24.68070516	      9.88442297	    -13.92468869	    -13.04894420	     -6.31140990	      5.71234406	     10.13710454	     14.40911119	    -12.70315006	      6.35046219
      4.47000000	    -14.00812878	      9.96090921	     -6.61413115	      0.71052790	     -0.01528735	      0.00332369	     24.08867187	    -14.11256592	     -0.27822549	    -63.55705103	    -24.32602586	     15.21072849	     47.92668289	     23.83424607	      9.94324553	    -13.37336223	    -12.63051230	     -6.13311674	      5.67565274	      9.95311906	     14.17525495	    -12.48155144	      5.79974199
      4.47500000	    -13.98653346	      9.72651936	     -6.35087744	      0.71680606	     -0.01431786	      0.00252176	     24.65034010	    -13.89881239	     -0.34525411	    -64.03895426	    -23.85973044	     15.84018251	     48.42043317	     23.16681029	      9.95591461	    -13.03528051	    -12.24255243	     -5.95302962	      5.87434940	      9.97625926	     14.10918288	    -12.26712880	      5.29117711
      4.48000000	    -13.84412915	      9.45243395	     -6.04537094	      0.72314520	     -0.01320515	      0.00158229	     25.01321283	    -13.70460721	     -0.53826369	    -64.39235694	    -23.42970237	     16.23368252	     49.39564109	     22.33519989	      9.98896935	    -12.46767158	    -11.81726409	     -5.79912108	      5.80314774	      9.77777857	     13.90346779	    -12.03004423	      4.72253982
      4.48500000	    -13.82671800	      9.20813428	     -5.77601566	      0.72931999	     -0.01232315	      0.00078264	     25.56605825	    -13.48052868	     -0.62140474	    -64.77483516	    -22.95219822	     16.81577425	     49.84900507	     21.68366445	      9.97513413	    -12.11065594	    -11.43928752	     -5.62268881	      5.98766160	      9.79708240	     13.83481737	    -11.80554338	      4.23012589
      4.49000000	    -13.76409317	      8.93874454	     -5.46935026	      0.73553988	     -0.01140218	     -0.00008761	     26.02431598	    -13.26612277	     -0.78481684	    -65.07624741	    -22.47064977	     17.29135988	     50.34066203	     20.96772700	      9.95926292	    -11.66316089	    -11.04548213	     -5.46817450	      6.07921001	      9.75664185	     13.71562541	    -11.56785494	      3.68740268
